<svg version="1.1" id="Capa_1" xmlns="http://www.w3.org/2000/svg" x="0" y="0" viewBox="0 0 447.2 447.2" xml:space="preserve"><style>.st0{fill:#000}</style><path class="st0" d="M111.7 276.9l-59 59c-15.5 14.3-18.2 37.7-6.3 55.2 13.3 18.4 39 22.6 57.5 9.2 1.9-1.4 3.7-2.9 5.4-4.6L170 335l-58.3-58.1z"/><path class="st0" d="M369.2 37.4H78.1c-22.8 0-41.2 18.5-41.2 41.2 0 1.8.2 3.6.4 5.4 4 20.3 22.1 34.9 42.8 34.3l160.9.3c8.5 0 17-1.3 25.2-4l12.6-4.8L94 294.6l58.3 58.3 184.5-184.5-3.4 9.2c-3.2 9-4.9 18.5-4.8 28.1v160.9c-.5 20.7 14 38.8 34.3 42.8 22.5 3.4 43.5-11.9 46.9-34.3.3-1.8.4-3.6.5-5.5v-291c.1-22.9-18.5-41.2-41.1-41.2z"/></svg>