<svg fill="#878787" xmlns="http://www.w3.org/2000/svg" viewBox="0 0 512 512"><path d="M509 186l-52.3-69.7 2-14.3c.7-4.7-.9-9.4-4.2-12.7l-31.8-31.8 31.8-31.8c5.9-5.9 5.9-15.4 0-21.2-5.9-5.9-15.4-5.9-21.2 0l-31.8 31.8-31.9-31.9c-3.3-3.3-8.1-4.9-12.7-4.2L208.4 21.4c-3.2.5-6.2 1.9-8.5 4.2L16.1 209.5c-21.4 21.4-21.4 56.3 0 77.8l155.6 155.6c3.2 3.2 6.7 5.9 10.4 8.1v6.1c0 30.3 24.7 55 55 55h220c30.3 0 55-24.7 55-55V195c-.1-3.2-1.2-6.4-3.1-9zM37.3 266c-9.7-9.7-9.7-25.6 0-35.4L217.6 50.4 353.7 31l26.5 26.5L359 78.6 348.4 68c-5.9-5.9-15.4-5.9-21.2 0s-5.9 15.4 0 21.2l42.4 42.4c2.9 2.9 6.8 4.4 10.6 4.4s7.7-1.5 10.6-4.4c5.9-5.9 5.9-15.4 0-21.2l-10.6-10.6 21.2-21.2 26.5 26.5-19.4 136.1-180.3 180.4c-4.7 4.7-11 7.3-17.7 7.3s-13-2.6-17.7-7.3L37.3 266zM482 457c0 13.8-11.2 25-25 25H237c-13.2 0-24-10.2-24.9-23.2 13.6-.4 27-5.7 37.4-16L433.3 259c2.3-2.3 3.8-5.3 4.2-8.5l13.2-92.2L482 200v257z"/></svg>