<svg xmlns="http://www.w3.org/2000/svg" viewBox="0 0 479.619 479.619"><path d="M475.855 336.376a51.19 51.19 0 00-2.017-8.275c-8.621-23.991-33.203-38.346-58.334-34.065-8.313 1.309-16.114-4.368-17.425-12.681l-12.646-80.913c-10.379-68.459-59.835-124.522-126.464-143.36C252.909 19.994 217.931-5.16 180.842.9c-36.598 5.98-61.669 40.163-56.376 76.867-57.432 36.346-87.748 103.365-77.124 170.496l13.551 86.118c1.241 8.297-4.405 16.054-12.68 17.425-25.234 3.641-44.226 24.849-45.073 50.33-.292 28.275 22.393 51.434 50.668 51.726a52.504 52.504 0 008.502-.611l52.531-8.26c18.274 32.622 59.533 44.254 92.155 25.98a67.703 67.703 0 0033.285-45.709L433.22 394.9c27.934-4.387 47.023-30.589 42.635-58.524zM186.777 36.313a35.849 35.849 0 015.376-.427 34.304 34.304 0 0128.416 15.36h-.819a162.674 162.674 0 00-19.081.546 173.35 173.35 0 00-19.883 3.072c-1.417.29-2.816.7-4.216 1.041-5.376 1.263-10.65 2.748-15.821 4.506-.512.154-1.041.239-1.553.427a34.136 34.136 0 0127.581-24.525zm-12.971 409.173a33.664 33.664 0 01-20.087-6.622l47.787-7.492a34.136 34.136 0 01-27.7 14.114zm266.018-92.279a17.066 17.066 0 01-11.947 7.987L222.31 393.518l-99.891 15.718-65.365 10.24a16.862 16.862 0 01-13.79-3.925 17.064 17.064 0 01-5.99-13.21 18.518 18.518 0 0116.247-16.828c26.88-4.309 45.234-29.518 41.079-56.422l-13.534-86.118c-8.864-56.814 18.723-113.111 69.052-140.919.296-.099.586-.213.87-.341a136.533 136.533 0 0152.804-15.94c5.607-.493 11.24-.601 16.862-.324l2.799.137a134.21 134.21 0 0117.323 2.185h.546c57.748 12.493 101.701 59.479 110.319 117.931l12.732 80.913c4.232 26.931 29.49 45.336 56.422 41.114a18.518 18.518 0 0120.617 10.991 17.064 17.064 0 01-1.588 14.487z"/></svg>