<svg xmlns="http://www.w3.org/2000/svg" viewBox="0 0 284.9 284.9"><path d="M7.4 149l133.1 133c1.9 1.9 4.1 2.9 6.6 2.9s4.7-1 6.6-2.9l14.3-14.3c1.9-1.9 2.9-4.1 2.9-6.6s-.9-4.7-2.9-6.6l-112.3-112L167.9 30.3c1.9-1.9 2.9-4.1 2.9-6.6s-.9-4.7-2.9-6.6L153.6 2.9C151.7.9 149.5 0 147 0s-4.7 1-6.6 2.9l-133 133c-1.9 1.9-2.9 4.1-2.9 6.6s1 4.6 2.9 6.5z"/><path d="M114.2 142.5c0 2.5.9 4.7 2.9 6.6l133 133c1.9 1.9 4.1 2.9 6.6 2.9s4.7-1 6.6-2.9l14.3-14.3c1.9-1.9 2.9-4.1 2.9-6.6s-1-4.7-2.9-6.6L165.3 142.5 277.5 30.3c1.9-1.9 2.9-4.1 2.9-6.6s-1-4.7-2.9-6.6L263.2 2.9C261.3 1 259.1 0 256.6 0s-4.7 1-6.6 2.9l-133 133c-1.8 1.9-2.8 4.1-2.8 6.6z"/></svg>