<svg xmlns="http://www.w3.org/2000/svg" viewBox="0 0 384 384"><path d="M376.304 178.327l-224-136a16.007 16.007 0 00-16.152-.272A16 16 0 00128 55.999v136c0 8.832 7.168 16 16 16s16-7.168 16-16V84.431l177.168 107.568L160 299.567v-43.568c0-8.832-7.168-16-16-16s-16 7.168-16 16v72a16 16 0 0016 16c2.88 0 5.752-.776 8.304-2.328l224-136A15.99 15.99 0 00384 191.999a15.99 15.99 0 00-7.696-13.672zM88 279.999H16c-8.832 0-16 7.168-16 16s7.168 16 16 16h72c8.832 0 16-7.168 16-16s-7.168-16-16-16zm-32-208H16c-8.832 0-16 7.168-16 16s7.168 16 16 16h40c8.832 0 16-7.168 16-16s-7.168-16-16-16zm32 64h-8c-8.832 0-16 7.168-16 16s7.168 16 16 16h8c8.832 0 16-7.168 16-16s-7.168-16-16-16zm-16 72H48c-8.832 0-16 7.168-16 16s7.168 16 16 16h24c8.832 0 16-7.168 16-16s-7.168-16-16-16z"/></svg>