<?xml version="1.0" encoding="utf-8"?>
<!-- Generator: Adobe Illustrator 23.1.1, SVG Export Plug-In . SVG Version: 6.00 Build 0)  -->
<svg version="1.1" id="Capa_1" xmlns="http://www.w3.org/2000/svg" xmlns:xlink="http://www.w3.org/1999/xlink" x="0px" y="0px"
	 viewBox="0 0 284.9 284.9" style="enable-background:new 0 0 284.9 284.9;" xml:space="preserve">
<g>
	<g>
		<path d="M222.7,135.9L89.6,2.9C87.7,1,85.6,0,83.1,0c-2.5,0-4.7,1-6.6,2.9L62.2,17.1c-1.9,1.9-2.9,4.1-2.9,6.6s0.9,4.7,2.9,6.6
			l112.2,112.2L62.2,254.7c-1.9,1.9-2.9,4.1-2.9,6.6c0,2.5,0.9,4.7,2.9,6.6l14.3,14.3c1.9,1.9,4.1,2.9,6.6,2.9c2.5,0,4.7-1,6.6-2.9
			l133.1-133c1.9-1.9,2.9-4.1,2.9-6.6S224.6,137.8,222.7,135.9z"/>
	</g>
</g>
</svg>
