<?xml version="1.0" encoding="utf-8"?>
<!-- Generator: Adobe Illustrator 23.1.1, SVG Export Plug-In . SVG Version: 6.00 Build 0)  -->
<svg version="1.1" id="Capa_1" xmlns="http://www.w3.org/2000/svg" xmlns:xlink="http://www.w3.org/1999/xlink" x="0px" y="0px"
	 viewBox="0 0 284.9 284.9" style="enable-background:new 0 0 284.9 284.9;" xml:space="preserve">
<g>
	<g>
		<path d="M7.4,149l133.1,133c1.9,1.9,4.1,2.9,6.6,2.9c2.5,0,4.7-1,6.6-2.9l14.3-14.3c1.9-1.9,2.9-4.1,2.9-6.6s-0.9-4.7-2.9-6.6
			L55.7,142.5L167.9,30.3c1.9-1.9,2.9-4.1,2.9-6.6c0-2.5-0.9-4.7-2.9-6.6L153.6,2.9C151.7,0.9,149.5,0,147,0c-2.5,0-4.7,1-6.6,2.9
			L7.4,135.9c-1.9,1.9-2.9,4.1-2.9,6.6S5.5,147.1,7.4,149z"/>
		<path d="M114.2,142.5c0,2.5,0.9,4.7,2.9,6.6l133,133c1.9,1.9,4.1,2.9,6.6,2.9c2.5,0,4.7-1,6.6-2.9l14.3-14.3
			c1.9-1.9,2.9-4.1,2.9-6.6s-1-4.7-2.9-6.6L165.3,142.5L277.5,30.3c1.9-1.9,2.9-4.1,2.9-6.6c0-2.5-1-4.7-2.9-6.6L263.2,2.9
			c-1.9-1.9-4.1-2.9-6.6-2.9c-2.5,0-4.7,1-6.6,2.9l-133,133C115.2,137.8,114.2,140,114.2,142.5z"/>
	</g>
</g>
</svg>
