<?xml version="1.0" encoding="utf-8"?>
<!-- Generator: Adobe Illustrator 23.1.1, SVG Export Plug-In . SVG Version: 6.00 Build 0)  -->
<svg version="1.1" id="Capa_1" xmlns="http://www.w3.org/2000/svg" xmlns:xlink="http://www.w3.org/1999/xlink" x="0px" y="0px"
	 viewBox="0 0 447.2 447.2" style="enable-background:new 0 0 447.2 447.2;" xml:space="preserve">
<style type="text/css">
	.st0{fill:#FFFFFF;}
</style>
<g>
	<g>
		<path class="st0" d="M111.7,276.9l-59,59c-15.5,14.3-18.2,37.7-6.3,55.2c13.3,18.4,39,22.6,57.5,9.2c1.9-1.4,3.7-2.9,5.4-4.6
			L170,335L111.7,276.9z"/>
		<path class="st0" d="M369.2,37.4H78.1c-22.8,0-41.2,18.5-41.2,41.2c0,1.8,0.2,3.6,0.4,5.4c4,20.3,22.1,34.9,42.8,34.3l160.9,0.3
			c8.5,0,17-1.3,25.2-4l12.6-4.8L94,294.6l58.3,58.3l184.5-184.5l-3.4,9.2c-3.2,9-4.9,18.5-4.8,28.1v160.9
			c-0.5,20.7,14,38.8,34.3,42.8c22.5,3.4,43.5-11.9,46.9-34.3c0.3-1.8,0.4-3.6,0.5-5.5v-291C410.4,55.7,391.8,37.4,369.2,37.4z"/>
	</g>
</g>
</svg>
