<?xml version="1.0" encoding="utf-8"?>
<!-- Generator: Adobe Illustrator 23.1.1, SVG Export Plug-In . SVG Version: 6.00 Build 0)  -->
<svg fill="#878787" version="1.1" id="bold" xmlns="http://www.w3.org/2000/svg" xmlns:xlink="http://www.w3.org/1999/xlink" x="0px" y="0px"
	 viewBox="0 0 512 512" style="enable-background:new 0 0 512 512;" xml:space="preserve">
<g>
	<path d="M97.8,197.8l271,271c1.4,1.4,3.1,2.3,4.9,2.8l120.6,30c0.9,0.2,1.7,0.3,2.6,0.3c2.8,0,5.5-1.1,7.5-3.1
		c2.6-2.6,3.7-6.5,2.8-10.1l-30-120.6c-0.5-1.9-1.5-3.6-2.8-4.9l-271-271L97.8,197.8z"/>
	<path d="M30.6,55.3C20.6,65.4,15,78.8,15,93s5.5,27.6,15.6,37.7l36.9,36.9L173.2,62.1l-36.9-36.9C116.1,5,80.9,5,60.8,25.1
		L30.6,55.3L30.6,55.3z"/>
</g>
</svg>
